<svg width="41" height="42" viewBox="0 0 41 42" fill="none" xmlns="http://www.w3.org/2000/svg">
<path d="M17.3269 0.736816C19.6862 0.736816 22.0464 0.736816 24.4056 0.736816C24.9494 0.935801 25.0597 1.38795 25.1109 1.89723C25.2262 3.04582 25.372 4.19047 25.4803 5.34005C25.505 5.59617 25.6192 5.68778 25.835 5.7725C26.5767 6.06408 27.3175 6.36058 28.0415 6.69255C28.2878 6.80583 28.4346 6.76742 28.6286 6.60882C29.5526 5.85426 30.4865 5.1125 31.4184 4.36779C32.0084 3.89692 32.366 3.9117 32.891 4.43576C34.3667 5.90843 35.8403 7.38309 37.312 8.85971C37.8381 9.3877 37.8538 9.74233 37.383 10.3353C36.6254 11.2909 35.8581 12.2385 35.1104 13.2019C35.0296 13.3063 34.9961 13.5171 35.0434 13.6393C35.3508 14.4322 35.6778 15.2173 36.0216 15.9956C36.0748 16.1167 36.2413 16.2487 36.3703 16.2655C37.5258 16.4122 38.6842 16.5413 39.8427 16.6585C40.35 16.7097 40.8051 16.8151 41.0001 17.3648C41.0001 19.729 41.0001 22.0931 41.0001 24.4573C40.8041 25.006 40.349 25.1114 39.8417 25.1636C38.696 25.2798 37.5524 25.4246 36.4058 25.535C36.1496 25.5596 36.059 25.6749 35.9743 25.8906C35.6837 26.6333 35.3872 27.3761 35.0562 28.1021C34.9439 28.3493 34.9813 28.4961 35.1399 28.6902C35.8935 29.6151 36.6333 30.551 37.3761 31.4848C37.8459 32.0758 37.8312 32.4344 37.3081 32.9604C35.8384 34.439 34.3667 35.9156 32.892 37.3903C32.365 37.9173 32.0114 37.9331 31.4193 37.4612C30.4658 36.7017 29.5201 35.9334 28.5587 35.1847C28.4553 35.1039 28.2435 35.0705 28.1223 35.1177C27.3313 35.4261 26.5472 35.7531 25.7709 36.0979C25.6498 36.1511 25.5178 36.3185 25.502 36.4466C25.3562 37.6041 25.2262 38.7645 25.11 39.9259C25.0587 40.4361 24.9474 40.8863 24.4047 41.0853C22.0454 41.0853 19.6852 41.0853 17.3259 41.0853C16.7812 40.8863 16.6719 40.4332 16.6206 39.9239C16.5054 38.7753 16.3596 37.6297 16.2502 36.4801C16.2256 36.222 16.1084 36.1333 15.8936 36.0486C15.1637 35.762 14.4348 35.4694 13.7206 35.1463C13.4733 35.034 13.3128 35.036 13.098 35.2133C12.177 35.9718 11.2412 36.7116 10.3083 37.4563C9.71529 37.9291 9.36263 37.9153 8.83463 37.3873C7.359 35.9127 5.88632 34.4371 4.41462 32.9585C3.89155 32.4324 3.87677 32.0768 4.34862 31.4818C5.09925 30.5372 5.84987 29.5925 6.60936 28.6547C6.74825 28.4833 6.78076 28.3513 6.68324 28.1336C6.34733 27.381 6.03802 26.6156 5.73363 25.8492C5.65877 25.6601 5.57799 25.5596 5.35339 25.5379C4.18018 25.4227 3.00991 25.2818 1.83866 25.1557C0.961952 25.0612 0.731445 24.8109 0.731445 23.9234C0.731445 21.9405 0.731445 19.9585 0.731445 17.9755C0.731445 16.9708 0.948161 16.7541 1.96081 16.6536C3.09463 16.5423 4.2245 16.3945 5.35832 16.2832C5.58193 16.2615 5.66566 16.166 5.74151 15.9749C6.0459 15.2085 6.35521 14.4441 6.69014 13.6905C6.78569 13.4748 6.75909 13.3398 6.61921 13.1674C5.85085 12.2198 5.09137 11.2652 4.33286 10.3097C3.8817 9.74134 3.9014 9.37982 4.41462 8.86463C5.88533 7.38604 7.359 5.91041 8.83463 4.43576C9.36559 3.9048 9.71627 3.88707 10.3073 4.35695C11.2609 5.11644 12.2154 5.87494 13.1601 6.64724C13.3285 6.78515 13.4546 6.79007 13.6477 6.70536C14.4022 6.37536 15.1617 6.05718 15.9281 5.75673C16.1399 5.67399 16.2266 5.57154 16.2502 5.34005C16.3635 4.19146 16.5064 3.04484 16.6216 1.89624C16.6728 1.38893 16.7832 0.935801 17.3269 0.736816ZM18.2657 39.3841C20.025 39.3841 21.7361 39.3841 23.4678 39.3841C23.4944 39.1812 23.521 39.0009 23.5407 38.8196C23.6668 37.7114 23.7919 36.6032 23.9151 35.494C23.9584 35.101 24.1564 34.8212 24.5337 34.7139C25.7483 34.3681 26.9057 33.8913 28.009 33.2747C28.3538 33.0816 28.6897 33.1289 29.001 33.3673C29.1566 33.4874 29.3083 33.6125 29.462 33.7357C30.3298 34.4302 31.1977 35.1246 32.0025 35.7689C33.2506 34.5208 34.4701 33.3023 35.7034 32.0689C34.9459 31.1193 34.1657 30.1313 33.3727 29.1531C33.0743 28.7847 33.0437 28.4252 33.2348 27.9878C33.7155 26.8855 34.1765 25.7743 34.6149 24.6533C34.7765 24.2396 35.0208 23.9983 35.4621 23.953C36.0748 23.8889 36.6855 23.817 37.2973 23.7471C37.9681 23.6702 38.6389 23.5924 39.3117 23.5156C39.3117 21.7562 39.3117 20.0521 39.3117 18.3213C39.16 18.2967 39.0211 18.2671 38.8803 18.2514C37.8252 18.1351 36.7712 18.0189 35.7152 17.9086C34.9331 17.8268 34.8159 17.6849 34.5341 16.9333C34.149 15.9049 33.7165 14.8933 33.2594 13.8944C33.0477 13.4314 33.0526 13.0561 33.3786 12.6621C33.881 12.0563 34.3627 11.4337 34.8533 10.818C35.1528 10.4427 35.4512 10.0674 35.729 9.7177C34.4799 8.46863 33.2663 7.25503 32.0409 6.02861C31.968 6.08378 31.8735 6.15372 31.7818 6.22661C30.8805 6.9467 29.9772 7.6658 29.0788 8.39081C28.7557 8.65186 28.4109 8.76809 28.0287 8.55729C26.9117 7.94064 25.7443 7.45401 24.517 7.1053C24.1732 7.00777 23.9673 6.75658 23.921 6.39506C23.8678 5.97837 23.8215 5.56071 23.7742 5.14402C23.6727 4.24564 23.5713 3.34725 23.4688 2.43311C21.7243 2.43311 20.0112 2.43311 18.2923 2.43311C18.2726 2.52472 18.2489 2.60057 18.2411 2.6774C18.1169 3.78561 17.9879 4.89381 17.8727 6.00399C17.7889 6.81667 17.6559 6.93488 16.8866 7.21956C15.9074 7.58207 14.9342 7.97413 13.9964 8.42923C13.4398 8.70012 13.0143 8.70702 12.5306 8.2992C11.5987 7.5141 10.6324 6.77136 9.71135 6.03649C8.47508 7.27473 7.25556 8.4972 6.02029 9.73543C6.78963 10.7008 7.57867 11.6977 8.37657 12.6887C8.65042 13.0295 8.73908 13.3871 8.51843 13.7791C7.9067 14.8706 7.43879 16.0202 7.09697 17.2239C6.9896 17.6012 6.72461 17.814 6.33058 17.8593C5.9405 17.9036 5.55041 17.9509 5.15934 17.9962C4.2511 18.1007 3.34188 18.2031 2.42478 18.3085C2.42478 20.0609 2.42478 21.7759 2.42478 23.5047C2.55777 23.5304 2.67105 23.5609 2.7863 23.5737C3.82752 23.688 4.86973 23.8062 5.91193 23.9106C6.80834 24.0002 6.90587 24.1165 7.21222 24.9489C7.57374 25.93 7.97959 26.8983 8.42878 27.841C8.68096 28.371 8.68293 28.7828 8.29875 29.2428C7.50971 30.1884 6.75712 31.1637 6.03309 32.0709C7.27034 33.32 8.48395 34.5464 9.71135 35.7866C10.661 35.0261 11.6411 34.2578 12.6025 33.4668C13.0251 33.119 13.4132 33.12 13.9008 33.3495C14.8583 33.7987 15.8326 34.2184 16.8236 34.5848C17.6776 34.901 17.787 34.9976 17.8786 35.9147C17.9948 37.0623 18.1337 38.2079 18.2657 39.3841Z" fill="white"/>
<path d="M27.5489 21.7326C27.0022 21.7326 26.4722 21.7326 25.9137 21.7326C25.9137 20.7623 25.9137 19.8077 25.9137 18.7449C25.7502 18.8995 25.6517 18.9882 25.5571 19.0827C23.981 20.6608 22.4059 22.2399 20.8298 23.818C20.1914 24.4563 19.7216 24.4228 19.1837 23.7047C18.6035 22.9304 18.0233 22.1571 17.4263 21.3622C17.2973 21.4834 17.1919 21.5779 17.0924 21.6784C15.4424 23.3313 13.7934 24.9843 12.1424 26.6372C11.4706 27.3091 10.9091 27.2125 10.4767 26.3841C9.43546 24.3903 8.98331 22.2685 9.16062 20.0333C9.39014 17.155 10.5052 14.6499 12.5601 12.6128C15.0937 10.1018 18.174 8.95326 21.7262 9.18573C24.1268 9.34236 26.3068 10.1816 28.1705 11.7154C31.3345 14.3199 32.8407 17.7105 32.559 21.7986C32.3295 25.137 30.8627 27.9109 28.2601 30.0338C25.8576 31.995 23.0816 32.857 19.9974 32.6393C17.5544 32.4659 15.3715 31.5823 13.4191 30.0013C13.7727 29.5708 14.1165 29.1521 14.4642 28.7276C14.9144 29.0339 15.3419 29.3255 15.8305 29.6575C15.8305 28.3818 15.8305 27.1928 15.8305 25.9802C16.391 25.9802 16.921 25.9802 17.4864 25.9802C17.4923 26.123 17.5042 26.2619 17.5042 26.4008C17.5052 27.6351 17.5111 28.8704 17.4992 30.1047C17.4973 30.3431 17.5702 30.4623 17.8017 30.5164C18.2449 30.6189 18.6843 30.7401 19.1798 30.8681C19.1798 29.7737 19.1798 28.7315 19.1798 27.6607C19.7541 27.6607 20.283 27.6607 20.8573 27.6607C20.8573 28.7601 20.8573 29.8545 20.8573 31.009C21.4346 30.9587 21.9626 30.9124 22.531 30.8622C22.531 28.9413 22.531 27.0569 22.531 25.1409C23.1023 25.1409 23.6313 25.1409 24.2066 25.1409C24.2066 26.8687 24.2066 28.5946 24.2066 30.4406C24.7957 30.1569 25.3089 29.9224 25.8054 29.6565C25.8773 29.6181 25.895 29.4289 25.895 29.3097C25.8999 27.51 25.8989 25.7113 25.8989 23.9115C25.8989 23.7687 25.8989 23.6269 25.8989 23.4594C26.4545 23.4594 26.9845 23.4594 27.5627 23.4594C27.5627 25.067 27.5627 26.6717 27.5627 28.3148C30.3623 26.0669 32.1669 20.9829 29.7555 16.2644C27.2564 11.3746 21.2011 9.42806 16.2246 11.9961C11.2726 14.5524 9.66793 20.3426 11.5937 24.7804C11.7021 24.6809 11.8055 24.5932 11.9011 24.4977C13.4959 22.9009 15.0898 21.3031 16.6846 19.7063C17.3525 19.0374 17.8115 19.0739 18.3858 19.8412C18.9512 20.5968 19.5176 21.3513 20.0525 22.0645C21.5577 20.5564 23.0521 19.0581 24.5366 17.5697C23.6628 17.5697 22.7191 17.5697 21.7429 17.5697C21.7429 16.9924 21.7429 16.4615 21.7429 15.8684C21.8532 15.8684 21.9784 15.8684 22.1025 15.8684C23.5702 15.8684 25.039 15.8665 26.5067 15.8694C27.2633 15.8704 27.5667 16.164 27.5696 16.9097C27.5745 18.407 27.5716 19.9043 27.5706 21.4016C27.5716 21.5031 27.5578 21.6055 27.5489 21.7326Z" fill="white"/>
</svg>
