<svg width="1167" height="1024" viewBox="0 0 1167 1024" fill="none" xmlns="http://www.w3.org/2000/svg">
<path d="M783.299 -45H781.189C790.966 74.6342 842.229 185.787 928.064 271.622C1018.37 361.928 1136.71 413.984 1263.44 419.687V417.577C1009.66 405.963 804.147 206.28 783.299 -45Z" fill="white"/>
<path d="M2.17251 1024C33.9455 880.489 162.186 772.803 315.118 772.803C468.05 772.803 596.291 880.468 628.064 1024H630.195C598.38 879.319 469.199 770.714 315.097 770.714C160.995 770.714 31.8147 879.319 0 1024H2.17251Z" fill="white"/>
<path d="M1012 647C954.113 647 907 599.887 907 542C907 484.113 954.113 437 1012 437C1069.89 437 1117 484.113 1117 542C1117 599.921 1069.89 647 1012 647ZM1012 440.377C955.971 440.377 910.377 485.971 910.377 542C910.377 598.029 955.971 643.623 1012 643.623C1068.03 643.623 1113.62 598.029 1113.62 542C1113.62 485.971 1068.03 440.377 1012 440.377Z" fill="white"/>
<path d="M861.029 307.469C866.336 307.469 870.638 303.167 870.638 297.86C870.638 292.553 866.336 288.25 861.029 288.25C855.722 288.25 851.42 292.553 851.42 297.86C851.42 303.167 855.722 307.469 861.029 307.469Z" fill="white"/>
<path d="M1058.73 147.413C1058.73 150.066 1056.58 152.218 1053.92 152.218C1051.27 152.218 1049.12 150.066 1049.12 147.413C1049.12 144.76 1051.27 142.609 1053.92 142.609C1056.58 142.609 1058.73 144.76 1058.73 147.413Z" fill="white"/>
<path d="M671.749 948.171C674.403 948.171 676.554 946.02 676.554 943.367C676.554 940.713 674.403 938.562 671.749 938.562C669.096 938.562 666.945 940.713 666.945 943.367C666.945 946.02 669.096 948.171 671.749 948.171Z" fill="white"/>
<path d="M177.023 607.421C179.677 607.421 181.828 605.27 181.828 602.617C181.828 599.963 179.677 597.812 177.023 597.812C174.37 597.812 172.219 599.963 172.219 602.617C172.219 605.27 174.37 607.421 177.023 607.421Z" fill="white"/>
<path d="M1173.77 743.746C1173.77 746.399 1171.61 748.551 1168.96 748.551C1166.31 748.551 1164.16 746.399 1164.16 743.746C1164.16 741.093 1166.31 738.942 1168.96 738.942C1171.61 738.963 1173.77 741.093 1173.77 743.746Z" fill="white"/>
<path d="M260.31 884.458C260.31 888.072 257.385 890.975 253.792 890.975C250.179 890.975 247.275 888.051 247.275 884.458C247.275 880.844 250.199 877.94 253.792 877.94C257.385 877.94 260.31 880.865 260.31 884.458Z" fill="white"/>
<path d="M744.299 24.7084H735.484V54.4342H744.299V24.7084Z" fill="white"/>
<path d="M754.757 43.986V35.1707L725.031 35.1707V43.986L754.757 43.986Z" fill="white"/>
<path d="M787.233 136.378L708.873 214.738L710.35 216.215L788.71 137.855L787.233 136.378Z" fill="white"/>
</svg>
