<svg width="170" height="19" viewBox="0 0 170 19" fill="none" xmlns="http://www.w3.org/2000/svg">
<path d="M160.429 13.3623C160.854 14.8981 162.006 15.666 163.884 15.666C165.093 15.666 166.008 15.2575 166.629 14.4406L169.178 15.911C167.969 17.6592 166.188 18.5332 163.835 18.5332C161.81 18.5332 160.184 17.9206 158.959 16.6952C157.733 15.4699 157.121 13.926 157.121 12.0635C157.121 10.2173 157.725 8.68158 158.934 7.45625C160.143 6.21458 161.695 5.59375 163.59 5.59375C165.387 5.59375 166.866 6.21458 168.026 7.45625C169.202 8.69792 169.791 10.2337 169.791 12.0635C169.791 12.4719 169.75 12.9049 169.668 13.3623H160.429ZM160.38 10.9117H166.629C166.449 10.0785 166.074 9.45762 165.502 9.04918C164.946 8.64074 164.309 8.43652 163.59 8.43652C162.741 8.43652 162.038 8.65707 161.483 9.09819C160.927 9.52297 160.56 10.1275 160.38 10.9117Z" fill="white"/>
<path d="M153.232 5.93701H156.712L152.056 18.1903H148.454L143.797 5.93701H147.277L150.243 14.5143L153.232 5.93701Z" fill="white"/>
<path d="M140.683 4.46638C140.16 4.46638 139.703 4.27849 139.311 3.90272C138.935 3.51062 138.747 3.05316 138.747 2.53035C138.747 2.00755 138.935 1.55009 139.311 1.15798C139.703 0.765877 140.16 0.569824 140.683 0.569824C141.222 0.569824 141.68 0.765877 142.055 1.15798C142.448 1.55009 142.644 2.00755 142.644 2.53035C142.644 3.05316 142.448 3.51062 142.055 3.90272C141.68 4.27849 141.222 4.46638 140.683 4.46638ZM139.115 18.1901V5.93677H142.276V18.1901H139.115Z" fill="white"/>
<path d="M136.886 8.97512H134.117V14.0725C134.117 14.4973 134.223 14.8077 134.435 15.0037C134.648 15.1998 134.958 15.3142 135.367 15.3468C135.775 15.3632 136.281 15.355 136.886 15.3223V18.1896C134.713 18.4347 133.177 18.2304 132.279 17.5769C131.396 16.9234 130.955 15.7553 130.955 14.0725V8.97512H128.823V5.9363H130.955V3.46113L134.117 2.50537V5.9363H136.886V8.97512Z" fill="white"/>
<path d="M123.849 5.93684H127.01V18.1901H123.849V16.7443C122.901 17.9369 121.569 18.5332 119.854 18.5332C118.22 18.5332 116.815 17.9124 115.639 16.6707C114.479 15.4127 113.899 13.877 113.899 12.0635C113.899 10.25 114.479 8.72243 115.639 7.48076C116.815 6.22275 118.22 5.59375 119.854 5.59375C121.569 5.59375 122.901 6.19008 123.849 7.38273V5.93684ZM118.016 14.5632C118.653 15.2003 119.462 15.5189 120.442 15.5189C121.422 15.5189 122.231 15.2003 122.868 14.5632C123.522 13.9097 123.849 13.0764 123.849 12.0635C123.849 11.0506 123.522 10.2255 122.868 9.58833C122.231 8.93482 121.422 8.60806 120.442 8.60806C119.462 8.60806 118.653 8.93482 118.016 9.58833C117.379 10.2255 117.06 11.0506 117.06 12.0635C117.06 13.0764 117.379 13.9097 118.016 14.5632Z" fill="white"/>
<path d="M103.064 13.3623C103.489 14.8981 104.64 15.666 106.519 15.666C107.728 15.666 108.643 15.2575 109.264 14.4406L111.813 15.911C110.604 17.6592 108.823 18.5332 106.47 18.5332C104.444 18.5332 102.819 17.9206 101.593 16.6952C100.368 15.4699 99.7554 13.926 99.7554 12.0635C99.7554 10.2173 100.36 8.68158 101.569 7.45625C102.778 6.21458 104.33 5.59375 106.225 5.59375C108.022 5.59375 109.501 6.21458 110.661 7.45625C111.837 8.69792 112.425 10.2337 112.425 12.0635C112.425 12.4719 112.384 12.9049 112.303 13.3623H103.064ZM103.015 10.9117H109.264C109.084 10.0785 108.708 9.45762 108.137 9.04918C107.581 8.64074 106.944 8.43652 106.225 8.43652C105.376 8.43652 104.673 8.65707 104.118 9.09819C103.562 9.52297 103.194 10.1275 103.015 10.9117Z" fill="white"/>
<path d="M95.2732 8.04404C95.5672 7.25983 96.0492 6.67167 96.7191 6.27957C97.4052 5.88746 98.165 5.69141 98.9982 5.69141V9.22036C98.0342 9.10599 97.1683 9.30205 96.4005 9.80852C95.6489 10.315 95.2732 11.1564 95.2732 12.3327V18.1898H92.1118V5.93647H95.2732V8.04404Z" fill="white"/>
<path d="M82.6133 18.5337C80.0319 18.5337 77.8998 17.676 76.217 15.9605C74.5343 14.245 73.6929 12.1293 73.6929 9.61328C73.6929 7.08093 74.5343 4.96519 76.217 3.26607C77.8998 1.5506 80.0319 0.692871 82.6133 0.692871C84.1654 0.692871 85.5949 1.06047 86.9019 1.79567C88.2253 2.51453 89.2546 3.49479 89.9898 4.73646L87.0735 6.42742C86.6487 5.65954 86.0442 5.06322 85.26 4.63844C84.4758 4.19732 83.5935 3.97676 82.6133 3.97676C80.9468 3.97676 79.599 4.49956 78.5697 5.54518C77.5567 6.5908 77.0503 7.94683 77.0503 9.61328C77.0503 11.2634 77.5567 12.6113 78.5697 13.6569C79.599 14.7025 80.9468 15.2253 82.6133 15.2253C83.5935 15.2253 84.4758 15.0129 85.26 14.5881C86.0605 14.147 86.665 13.5507 87.0735 12.7991L89.9898 14.4901C89.2546 15.7318 88.2335 16.7202 86.9264 17.4554C85.6194 18.1743 84.1817 18.5337 82.6133 18.5337Z" fill="white"/>
<path d="M59.728 9.41678C59.728 9.74353 59.9404 10.0131 60.3652 10.2255C60.8063 10.4215 61.3373 10.6013 61.9581 10.7646C62.579 10.9117 63.1998 11.1077 63.8206 11.3528C64.4415 11.5815 64.9643 11.9736 65.389 12.5291C65.8302 13.0846 66.0507 13.779 66.0507 14.6122C66.0507 15.8702 65.5769 16.8423 64.6293 17.5285C63.6981 18.1983 62.5299 18.5332 61.1249 18.5332C58.6089 18.5332 56.8934 17.5611 55.9785 15.617L58.7233 14.073C59.0827 15.135 59.8832 15.666 61.1249 15.666C62.2522 15.666 62.8159 15.3147 62.8159 14.6122C62.8159 14.2854 62.5953 14.024 62.1542 13.828C61.7294 13.6156 61.2066 13.4277 60.5858 13.2643C59.9649 13.1009 59.3441 12.8967 58.7233 12.6517C58.1024 12.4066 57.5714 12.0226 57.1303 11.4998C56.7055 10.9607 56.4932 10.2908 56.4932 9.4903C56.4932 8.28131 56.9343 7.33372 57.8165 6.64753C58.7151 5.94501 59.8261 5.59375 61.1494 5.59375C62.146 5.59375 63.0528 5.82248 63.8696 6.27993C64.6865 6.72105 65.3319 7.35822 65.8057 8.19145L63.1099 9.66185C62.7178 8.82862 62.0643 8.41201 61.1494 8.41201C60.741 8.41201 60.3979 8.50187 60.1201 8.68158C59.8587 8.8613 59.728 9.10636 59.728 9.41678Z" fill="white"/>
<path d="M50.8506 5.93701H54.012V18.1903H50.8506V16.8179C50.0827 17.9616 48.8656 18.5334 47.1991 18.5334C45.8594 18.5334 44.7485 18.0841 43.8662 17.1855C43.0003 16.287 42.5674 15.0453 42.5674 13.4605V5.93701H45.7287V13.0684C45.7287 13.8853 45.9493 14.5143 46.3904 14.9554C46.8315 15.3802 47.4197 15.5926 48.1549 15.5926C48.9718 15.5926 49.6253 15.3394 50.1154 14.8329C50.6055 14.3264 50.8506 13.5667 50.8506 12.5538V5.93701Z" fill="white"/>
<path d="M41.1854 18.1903H37.5339L34.8872 14.4653L32.2159 18.1903H28.5645L33.0492 11.9411L28.7605 5.93701H32.412L34.8872 9.39244L37.3623 5.93701H40.9893L36.7006 11.9166L41.1854 18.1903Z" fill="white"/>
<path d="M19.0135 13.3623C19.4383 14.8981 20.5901 15.666 22.4689 15.666C23.6779 15.666 24.5928 15.2575 25.2136 14.4406L27.7623 15.911C26.5533 17.6592 24.7725 18.5332 22.4199 18.5332C20.394 18.5332 18.7684 17.9206 17.5431 16.6952C16.3177 15.4699 15.7051 13.926 15.7051 12.0635C15.7051 10.2173 16.3096 8.68158 17.5186 7.45625C18.7276 6.21458 20.2796 5.59375 22.1748 5.59375C23.972 5.59375 25.4505 6.21458 26.6105 7.45625C27.7868 8.69792 28.375 10.2337 28.375 12.0635C28.375 12.4719 28.3342 12.9049 28.2525 13.3623H19.0135ZM18.9645 10.9117H25.2136C25.0339 10.0785 24.6582 9.45762 24.0863 9.04918C23.5309 8.64074 22.8937 8.43652 22.1748 8.43652C21.3253 8.43652 20.6227 8.65707 20.0673 9.09819C19.5118 9.52297 19.1442 10.1275 18.9645 10.9117Z" fill="white"/>
<path d="M9.92518 1.03516H13.3071V18.1898H10.7339L3.38191 7.70095V18.1898H0V1.03516H2.57319L9.92518 11.4995V1.03516Z" fill="white"/>
</svg>
