<svg width="49" height="49" viewBox="0 0 49 49" fill="none" xmlns="http://www.w3.org/2000/svg">
<path d="M47.3845 19.624C46.3289 17.073 44.7748 14.7565 42.7809 12.7333C38.8811 8.83352 33.7205 6.63438 28.2079 6.51709C29.9673 8.98013 30.9349 11.8537 31.0815 14.7565C31.6972 14.9032 32.313 15.1084 32.8994 15.3723C34.5122 16.0467 35.9782 17.0143 37.2391 18.2752C39.7608 20.7969 41.1682 24.1689 41.1682 27.7461C41.1682 31.3234 39.7901 34.6661 37.2391 37.2171C34.7174 39.7388 31.3454 41.1463 27.7681 41.1463C24.1908 41.1463 20.8481 39.7681 18.2971 37.2171C16.5378 35.4578 15.365 33.3466 14.8078 31.0888C11.905 30.9422 9.03142 30.0039 6.53906 28.2446C6.65635 33.7278 8.85549 38.8885 12.7553 42.759C16.7724 46.7761 22.109 48.9752 27.7681 48.9752C33.4272 48.9752 38.7638 46.7761 42.7809 42.759C46.798 38.7419 48.9972 33.4053 48.9972 27.7461C48.9972 24.9019 48.4401 22.1457 47.3845 19.624ZM14.6319 25.3124C15.1011 22.7321 16.3326 20.2691 18.3265 18.3045C20.2617 16.3692 22.6954 15.1084 25.3051 14.6099C25.0998 12.4401 24.1615 10.2996 22.4902 8.62827C22.0797 8.21776 21.6692 7.8659 21.2293 7.54336C18.0919 8.56962 15.189 10.3289 12.7846 12.7333C10.3509 15.1671 8.5916 18.0699 7.59465 21.2367C7.91719 21.6765 8.26905 22.087 8.65024 22.4975C10.2923 24.1395 12.4328 25.1072 14.6319 25.3124Z" fill="white"/>
<path d="M31.0812 14.7562C30.0256 14.4923 28.9114 14.3457 27.7678 14.3457C26.9175 14.3457 26.0965 14.4337 25.3048 14.5803C25.5687 17.3952 24.6304 20.3274 22.4899 22.4679C20.3494 24.6084 17.4465 25.5467 14.6316 25.2828C14.2798 27.1887 14.3384 29.1533 14.8369 31.0592C15.0715 31.0592 15.3354 31.0885 15.5699 31.0885C19.5577 31.0885 23.5455 29.5638 26.5656 26.5436C29.5858 23.5235 31.0812 19.5357 31.0812 15.5479C31.0812 15.284 31.0812 15.0201 31.0812 14.7562ZM15.5406 5.75442C16.8014 5.75442 18.0623 5.989 19.2352 6.45815C19.9096 6.72204 20.584 7.10323 21.1997 7.54306C23.2816 6.86865 25.51 6.51679 27.7678 6.51679C27.9144 6.51679 28.0611 6.51679 28.2077 6.51679C27.7092 5.84239 27.1521 5.16798 26.5363 4.55222C20.4667 -1.51741 10.6145 -1.51741 4.54489 4.55222C1.6127 7.48441 0 11.3842 0 15.5479C0 19.7116 1.6127 23.6115 4.54489 26.5436C5.16065 27.1594 5.83506 27.7458 6.53878 28.215C6.53878 28.0684 6.53878 27.8925 6.53878 27.7165C6.53878 25.4587 6.89065 23.2889 7.56505 21.2071C6.39217 19.565 5.74709 17.6005 5.74709 15.5186C5.74709 12.909 6.77336 10.4459 8.62064 8.59865C10.5266 6.72204 13.0482 5.75442 15.5406 5.75442Z" fill="white"/>
</svg>
