<svg width="111" height="13" viewBox="0 0 111 13" fill="none" xmlns="http://www.w3.org/2000/svg">
<path d="M6.49632 0.799999H8.70432V12H7.02432L2.22432 5.152V12H0.0163184V0.799999H1.69632L6.49632 7.632V0.799999ZM12.4299 8.848C12.7073 9.85067 13.4593 10.352 14.6859 10.352C15.4753 10.352 16.0726 10.0853 16.4779 9.552L18.1419 10.512C17.3526 11.6533 16.1899 12.224 14.6539 12.224C13.3313 12.224 12.2699 11.824 11.4699 11.024C10.6699 10.224 10.2699 9.216 10.2699 8C10.2699 6.79467 10.6646 5.792 11.4539 4.992C12.2433 4.18133 13.2566 3.776 14.4939 3.776C15.6673 3.776 16.6326 4.18133 17.3899 4.992C18.1579 5.80267 18.5419 6.80533 18.5419 8C18.5419 8.26667 18.5153 8.54933 18.4619 8.848H12.4299ZM12.3979 7.248H16.4779C16.3606 6.704 16.1153 6.29867 15.7419 6.032C15.3793 5.76533 14.9633 5.632 14.4939 5.632C13.9393 5.632 13.4806 5.776 13.1179 6.064C12.7553 6.34133 12.5153 6.736 12.3979 7.248ZM26.9057 12H24.5217L22.7937 9.568L21.0497 12H18.6657L21.5937 7.92L18.7937 4H21.1777L22.7937 6.256L24.4097 4H26.7777L23.9777 7.904L26.9057 12ZM33.2159 4H35.2799V12H33.2159V11.104C32.7146 11.8507 31.9199 12.224 30.8319 12.224C29.9573 12.224 29.2319 11.9307 28.6559 11.344C28.0906 10.7573 27.8079 9.94667 27.8079 8.912V4H29.8719V8.656C29.8719 9.18933 30.0159 9.6 30.3039 9.888C30.5919 10.1653 30.9759 10.304 31.4559 10.304C31.9893 10.304 32.4159 10.1387 32.7359 9.808C33.0559 9.47733 33.2159 8.98133 33.2159 8.32V4ZM39.0118 6.272C39.0118 6.48533 39.1505 6.66133 39.4278 6.8C39.7158 6.928 40.0625 7.04533 40.4678 7.152C40.8732 7.248 41.2785 7.376 41.6838 7.536C42.0892 7.68533 42.4305 7.94133 42.7078 8.304C42.9958 8.66667 43.1398 9.12 43.1398 9.664C43.1398 10.4853 42.8305 11.12 42.2118 11.568C41.6038 12.0053 40.8412 12.224 39.9238 12.224C38.2812 12.224 37.1612 11.5893 36.5638 10.32L38.3558 9.312C38.5905 10.0053 39.1132 10.352 39.9238 10.352C40.6598 10.352 41.0278 10.1227 41.0278 9.664C41.0278 9.45067 40.8838 9.28 40.5958 9.152C40.3185 9.01333 39.9772 8.89067 39.5718 8.784C39.1665 8.67733 38.7612 8.544 38.3558 8.384C37.9505 8.224 37.6038 7.97333 37.3158 7.632C37.0385 7.28 36.8998 6.84267 36.8998 6.32C36.8998 5.53067 37.1878 4.912 37.7638 4.464C38.3505 4.00533 39.0758 3.776 39.9398 3.776C40.5905 3.776 41.1825 3.92533 41.7158 4.224C42.2492 4.512 42.6705 4.928 42.9798 5.472L41.2198 6.432C40.9638 5.888 40.5372 5.616 39.9398 5.616C39.6732 5.616 39.4492 5.67467 39.2678 5.792C39.0972 5.90933 39.0118 6.06933 39.0118 6.272ZM53.9533 12.224C52.268 12.224 50.876 11.664 49.7773 10.544C48.6787 9.424 48.1293 8.04267 48.1293 6.4C48.1293 4.74667 48.6787 3.36533 49.7773 2.256C50.876 1.136 52.268 0.575999 53.9533 0.575999C54.9667 0.575999 55.9 0.815999 56.7533 1.296C57.6173 1.76533 58.2893 2.40533 58.7693 3.216L56.8653 4.32C56.588 3.81867 56.1933 3.42933 55.6813 3.152C55.1693 2.864 54.5933 2.72 53.9533 2.72C52.8653 2.72 51.9853 3.06133 51.3133 3.744C50.652 4.42667 50.3213 5.312 50.3213 6.4C50.3213 7.47733 50.652 8.35733 51.3133 9.04C51.9853 9.72267 52.8653 10.064 53.9533 10.064C54.5933 10.064 55.1693 9.92533 55.6813 9.648C56.204 9.36 56.5987 8.97067 56.8653 8.48L58.7693 9.584C58.2893 10.3947 57.6227 11.04 56.7693 11.52C55.916 11.9893 54.9773 12.224 53.9533 12.224ZM62.2187 5.376C62.4107 4.864 62.7254 4.48 63.1627 4.224C63.6107 3.968 64.1067 3.84 64.6507 3.84V6.144C64.0214 6.06933 63.456 6.19733 62.9547 6.528C62.464 6.85867 62.2187 7.408 62.2187 8.176V12H60.1547V4H62.2187V5.376ZM67.3049 8.848C67.5823 9.85067 68.3343 10.352 69.5609 10.352C70.3503 10.352 70.9476 10.0853 71.3529 9.552L73.0169 10.512C72.2276 11.6533 71.0649 12.224 69.5289 12.224C68.2063 12.224 67.1449 11.824 66.3449 11.024C65.5449 10.224 65.1449 9.216 65.1449 8C65.1449 6.79467 65.5396 5.792 66.3289 4.992C67.1183 4.18133 68.1316 3.776 69.3689 3.776C70.5423 3.776 71.5076 4.18133 72.2649 4.992C73.0329 5.80267 73.4169 6.80533 73.4169 8C73.4169 8.26667 73.3903 8.54933 73.3369 8.848H67.3049ZM67.2729 7.248H71.3529C71.2356 6.704 70.9903 6.29867 70.6169 6.032C70.2543 5.76533 69.8383 5.632 69.3689 5.632C68.8143 5.632 68.3556 5.776 67.9929 6.064C67.6303 6.34133 67.3903 6.736 67.2729 7.248ZM80.8753 4H82.9393V12H80.8753V11.056C80.2567 11.8347 79.3873 12.224 78.2673 12.224C77.2007 12.224 76.2833 11.8187 75.5153 11.008C74.758 10.1867 74.3793 9.184 74.3793 8C74.3793 6.816 74.758 5.81867 75.5153 5.008C76.2833 4.18667 77.2007 3.776 78.2673 3.776C79.3873 3.776 80.2567 4.16533 80.8753 4.944V4ZM77.0673 9.632C77.4833 10.048 78.0113 10.256 78.6513 10.256C79.2913 10.256 79.8193 10.048 80.2353 9.632C80.662 9.20533 80.8753 8.66133 80.8753 8C80.8753 7.33867 80.662 6.8 80.2353 6.384C79.8193 5.95733 79.2913 5.744 78.6513 5.744C78.0113 5.744 77.4833 5.95733 77.0673 6.384C76.6513 6.8 76.4433 7.33867 76.4433 8C76.4433 8.66133 76.6513 9.20533 77.0673 9.632ZM89.3869 5.984H87.5789V9.312C87.5789 9.58933 87.6483 9.792 87.7869 9.92C87.9256 10.048 88.1283 10.1227 88.3949 10.144C88.6616 10.1547 88.9923 10.1493 89.3869 10.128V12C87.9683 12.16 86.9656 12.0267 86.3789 11.6C85.8029 11.1733 85.5149 10.4107 85.5149 9.312V5.984H84.1229V4H85.5149V2.384L87.5789 1.76V4H89.3869V5.984ZM91.8662 3.04C91.5249 3.04 91.2262 2.91733 90.9702 2.672C90.7249 2.416 90.6022 2.11733 90.6022 1.776C90.6022 1.43467 90.7249 1.136 90.9702 0.879999C91.2262 0.623999 91.5249 0.495999 91.8662 0.495999C92.2182 0.495999 92.5169 0.623999 92.7622 0.879999C93.0182 1.136 93.1462 1.43467 93.1462 1.776C93.1462 2.11733 93.0182 2.416 92.7622 2.672C92.5169 2.91733 92.2182 3.04 91.8662 3.04ZM90.8422 12V4H92.9062V12H90.8422ZM100.059 4H102.331L99.2913 12H96.9393L93.8993 4H96.1713L98.1073 9.6L100.059 4ZM104.758 8.848C105.035 9.85067 105.787 10.352 107.014 10.352C107.803 10.352 108.401 10.0853 108.806 9.552L110.47 10.512C109.681 11.6533 108.518 12.224 106.982 12.224C105.659 12.224 104.598 11.824 103.798 11.024C102.998 10.224 102.598 9.216 102.598 8C102.598 6.79467 102.993 5.792 103.782 4.992C104.571 4.18133 105.585 3.776 106.822 3.776C107.995 3.776 108.961 4.18133 109.718 4.992C110.486 5.80267 110.87 6.80533 110.87 8C110.87 8.26667 110.843 8.54933 110.79 8.848H104.758ZM104.726 7.248H108.806C108.689 6.704 108.443 6.29867 108.07 6.032C107.707 5.76533 107.291 5.632 106.822 5.632C106.267 5.632 105.809 5.776 105.446 6.064C105.083 6.34133 104.843 6.736 104.726 7.248Z" fill="white"/>
</svg>
